<svg width="120" height="120" viewBox="0 0 120 120" fill="none" xmlns="http://www.w3.org/2000/svg">
<rect opacity="0.1" width="120" height="120" rx="20" fill="#0096F2"/>
<rect x="23" y="24" width="70" height="70" rx="20" fill="#0096F2"/>
<path d="M57.5 42C47.8506 42 40 49.8514 40 59.5C40 69.1637 47.8363 77 57.5 77C67.1494 77 75 69.1494 75 59.5C75 49.8355 67.1645 42 57.5 42ZM57.5 68.3341C55.4025 68.3341 53.3909 67.5009 51.9077 66.0177C50.4246 64.5346 49.5913 62.523 49.5913 60.4255C49.5913 58.328 50.4246 56.3164 51.9077 54.8332C53.3909 53.3501 55.4025 52.5168 57.5 52.5168H57.8542L56.6671 51.3305C56.4462 51.1096 56.3221 50.81 56.3221 50.4976C56.3221 50.1852 56.4462 49.8856 56.6671 49.6647C56.888 49.4438 57.1876 49.3197 57.5 49.3197C57.8124 49.3197 58.112 49.4438 58.3329 49.6647L61.6983 53.03C61.8077 53.1394 61.8945 53.2693 61.9537 53.4122C62.0129 53.5551 62.0434 53.7083 62.0434 53.863C62.0434 54.0177 62.0129 54.1709 61.9537 54.3138C61.8945 54.4567 61.8077 54.5865 61.6983 54.6959L58.3329 58.0613C58.112 58.2822 57.8124 58.4063 57.5 58.4063C57.1876 58.4063 56.888 58.2822 56.6671 58.0613C56.4462 57.8404 56.3221 57.5408 56.3221 57.2284C56.3221 56.916 56.4462 56.6163 56.6671 56.3954L58.1815 54.881C57.9813 54.8726 57.7524 54.8726 57.5 54.8726C56.4017 54.8726 55.3282 55.1983 54.415 55.8084C53.5018 56.4186 52.7901 57.2858 52.3698 58.3005C51.9495 59.3151 51.8396 60.4316 52.0538 61.5088C52.2681 62.5859 52.7969 63.5754 53.5735 64.352C54.3501 65.1285 55.3395 65.6574 56.4167 65.8717C57.4938 66.0859 58.6103 65.976 59.625 65.5557C60.6397 65.1354 61.5069 64.4237 62.1171 63.5105C62.7272 62.5973 63.0529 61.5237 63.0529 60.4255C63.0529 60.1131 63.177 59.8135 63.3979 59.5926C63.6188 59.3717 63.9184 59.2476 64.2308 59.2476C64.5432 59.2476 64.8428 59.3717 65.0637 59.5926C65.2846 59.8135 65.4087 60.1131 65.4087 60.4255C65.4062 62.5222 64.5722 64.5324 63.0896 66.015C61.6069 67.4977 59.5968 68.3317 57.5 68.3341V68.3341Z" fill="white"/>
</svg>
