<svg width="41" height="41" viewBox="0 0 41 41" fill="none" xmlns="http://www.w3.org/2000/svg">
<path opacity="0.8" d="M0.5 20.5C0.5 9.45431 9.45431 0.5 20.5 0.5V0.5C31.5457 0.5 40.5 9.45431 40.5 20.5V20.5C40.5 31.5457 31.5457 40.5 20.5 40.5V40.5C9.45431 40.5 0.5 31.5457 0.5 20.5V20.5Z" fill="#E11D2E"/>
<path d="M19.1161 25.8839C19.6043 26.372 20.3957 26.372 20.8839 25.8839L28.8388 17.9289C29.327 17.4408 29.327 16.6493 28.8388 16.1612C28.3507 15.673 27.5592 15.673 27.0711 16.1612L20 23.2322L12.9289 16.1612C12.4408 15.673 11.6493 15.673 11.1612 16.1612C10.673 16.6493 10.673 17.4408 11.1612 17.9289L19.1161 25.8839ZM18.75 24L18.75 25L21.25 25L21.25 24L18.75 24Z" fill="white"/>
</svg>
