<svg width="80" height="80" viewBox="0 0 80 80" fill="none" xmlns="http://www.w3.org/2000/svg">
<rect opacity="0.1" width="80" height="80" rx="20" fill="#EA0B1E"/>
<rect x="16.6665" y="16.6665" width="46.6667" height="46.6667" rx="10" fill="#E11D2E"/>
<path d="M50.6857 28.667H44.1129C43.3869 28.667 42.7983 29.2555 42.7983 29.9815V36.5543C42.7983 37.2803 43.3869 37.8689 44.1129 37.8689H50.6857C51.4117 37.8689 52.0002 37.2803 52.0002 36.5543V29.9815C52.0002 29.2555 51.4117 28.667 50.6857 28.667Z" fill="white"/>
<path d="M36.5543 42.7983H29.9815C29.2555 42.7983 28.667 43.3869 28.667 44.1129V50.6857C28.667 51.4117 29.2555 52.0002 29.9815 52.0002H36.5543C37.2803 52.0002 37.8689 51.4117 37.8689 50.6857V44.1129C37.8689 43.3869 37.2803 42.7983 36.5543 42.7983Z" fill="white"/>
<path d="M33.2679 37.8689C33.8721 37.8689 34.4704 37.7499 35.0286 37.5187C35.5869 37.2874 36.0941 36.9485 36.5213 36.5213C36.9485 36.0941 37.2874 35.5869 37.5187 35.0286C37.7499 34.4704 37.8689 33.8721 37.8689 33.2679C37.8689 32.6637 37.7499 32.0654 37.5187 31.5072C37.2874 30.949 36.9485 30.4418 36.5213 30.0146C36.0941 29.5873 35.5869 29.2484 35.0286 29.0172C34.4704 28.786 33.8721 28.667 33.2679 28.667C32.0477 28.667 30.8774 29.1517 30.0146 30.0146C29.1517 30.8774 28.667 32.0477 28.667 33.2679C28.667 34.4882 29.1517 35.6585 30.0146 36.5213C30.8774 37.3841 32.0477 37.8689 33.2679 37.8689Z" fill="white"/>
<path d="M52.0002 50.6857L47.3993 42.7983L42.7983 50.6857C42.7983 51.4117 43.3869 52.0002 44.1129 52.0002H50.6857C51.4117 52.0002 52.0002 51.4117 52.0002 50.6857Z" fill="white"/>
</svg>
